# xmcd
#
# Track frame offsets: 
#        150
#        21095
#        40969
#        57507
#        90539
#        118361
#        145487
#        162686
#
# Disc length: 2624 seconds
#
# Revision: 5
# Processed by: cddbd v1.5.2PL0 Copyright (c) Steve Scherf et al.
# Submitted via: ExactAudioCopyFreeDBPlugin 1.0
#
DISCID=760a3e08
DTITLE=Deep Purple - 1968 Shades Of Deep Purple 
DYEAR=2001
DGENRE=Hard Rock
TTITLE0=01 And The Address
TTITLE1=02 Hush
TTITLE2=03 One More Rainy Day
TTITLE3=04 Prelude - a) Happiness b) I'm So Glad
TTITLE4=05 Mandrake Root
TTITLE5=06 Help
TTITLE6=07 Love Help Me
TTITLE7=08 Hey Joe
EXTD=YEAR: 1968
EXTT0=
EXTT1=
EXTT2=
EXTT3=
EXTT4=
EXTT5=
EXTT6=
EXTT7=
PLAYORDER=
